# xmcd
#
# Track frame offsets: 
#        150
#        13027
#        24245
#        36312
#        47830
#        60182
#        71555
#        99622
#        114285
#        127852
#        144430
#        154642
#        166232
#        184620
#        197692
#        207857
#        221305
#        230367
#        246617
#        258062
#        273712
#        285240
#        299877
#        312102
#        328462
#
# Disc length: 4611 seconds
#
# Revision: 3
# Processed by: cddbd v1.5.2PL0 Copyright (c) Steve Scherf et al.
# Submitted via: ExactAudioCopy v0.99pb4
#
DISCID=69120119
DTITLE=B.B. King - The Best of the Kent Singles 1958-1971
DYEAR=2000
DGENRE=Blues
TTITLE0=Why Does Everything Happen To Me
TTITLE1=Days Of Old
TTITLE2=You've Been An Angel
TTITLE3=Please Accept My Love
TTITLE4=Sugar Mama
TTITLE5=Mean Ole Frisco
TTITLE6=Sweet Sixteen (parts 1 and 2)
TTITLE7=I've Got A Right To Love My Baby
TTITLE8=Partin' Time
TTITLE9=Walkin' Dr Bill
TTITLE10=Peace Of Mind
TTITLE11=Someday
TTITLE12=My Sometime Baby
TTITLE13=Gonna Miss You Around Here
TTITLE14=My Reward
TTITLE15=Rock Me Baby
TTITLE16=Beautician Blues
TTITLE17=Blue Shadows
TTITLE18=Eyesight To The Blind
TTITLE19=Five Long Years
TTITLE20=It's A Mean World
TTITLE21=The Jungle
TTITLE22=Worry, Worry, Worry
TTITLE23=Your Fool
TTITLE24=That Evil Child
EXTD=
EXTT0=
EXTT1=
EXTT2=
EXTT3=
EXTT4=
EXTT5=
EXTT6=
EXTT7=
EXTT8=
EXTT9=
EXTT10=
EXTT11=
EXTT12=
EXTT13=
EXTT14=
EXTT15=
EXTT16=
EXTT17=
EXTT18=
EXTT19=
EXTT20=
EXTT21=
EXTT22=
EXTT23=
EXTT24=
PLAYORDER=
